<?xml version="1.0" encoding="utf-8"?>
<!-- Generator: Adobe Illustrator 23.0.3, SVG Export Plug-In . SVG Version: 6.00 Build 0)  -->
<svg version="1.1" id="Layer_1" xmlns="http://www.w3.org/2000/svg" xmlns:xlink="http://www.w3.org/1999/xlink" x="0px" y="0px"
	 viewBox="0 0 720 720" style="enable-background:new 0 0 720 720;" xml:space="preserve">
<style type="text/css">
	.st0{fill:#FFFFFF;}
</style>
<g>
	<g>
		<g>
			<path class="st0" d="M562.4,179.68c-6.77-10.58-15.3-19.36-25.49-26.67c-9.68-6.94-21.92-13.12-33.7-15.25
				c-13.1-2.37-27.02,1.68-40.24,2.2c-13.55,0.53-27.09,1.06-40.64,1.6c-55.84,2.19-111.69,4.39-167.53,6.58
				c-13.38,0.53-26.82,0.71-40.18,1.67c-12.74,0.92-25.34,3.45-35.78,11.22c-19.65,14.62-31.2,39.8-38.21,62.64
				c-14.51,47.26-10.91,98.84-6.39,147.36c2.57,27.68,6.26,55.28,11.03,82.67c4.49,25.78,9.18,52.12,16.79,77.2
				c3.61,11.91,9.09,23.87,18.55,32.29c8.71,7.75,19.48,12.61,30.84,14.99c24.15,5.07,49.94,3.18,74.45,3.42
				c27.73,0.27,55.46,0.54,83.19,0.82c27.12,0.27,54.29,0.85,81.39-0.46c26.42-1.27,53.01-4.34,78.56-11.38
				c24.36-6.71,48.93-16.96,58.83-42.08c4.31-10.95,4.98-23.2,4.79-34.86c-0.22-13.25-0.97-26.5-1.5-39.74
				c-1.09-27.71-2.19-55.42-3.28-83.13c-1.12-28.37-2.24-56.74-3.36-85.11c-0.96-24.28-1.68-49.01-8.01-72.62
				C573.39,201.37,568.71,189.98,562.4,179.68c-8.39-13.69-30.03-1.15-21.59,12.62c11.18,18.24,15.27,39.4,17,60.47
				c2.04,24.74,2.38,49.66,3.35,74.46c2.09,53.05,4.28,106.09,6.28,159.14c0.39,10.29,0.81,20.62-1.92,30.29
				c-2.5,8.86-8.03,15-16.01,19.6c-9.14,5.27-19.47,8.21-29.81,10.94c-11.46,3.03-23.15,5.31-34.9,6.85
				c-24.99,3.28-50.31,3.74-75.48,3.69c-25.96-0.05-51.92-0.45-77.87-0.7c-26.41-0.26-52.82-0.52-79.23-0.78
				c-9.68-0.1-21.2-0.06-29.72-1.39c-8.93-1.39-17.69-3.91-23.68-8.89c-7.59-6.31-11-15.63-13.58-24.91
				c-3.32-11.91-5.93-24.06-8.52-36.15c-5.28-24.69-9.68-49.58-13.05-74.6c-3.44-25.49-5.81-51.14-7.22-76.82
				c-1.23-22.45-1.57-45.04,0.91-67.42c2.29-20.71,7.56-41.69,17.35-60.2c4.66-8.82,10.05-18.09,18.06-24.25
				c7.49-5.77,17.58-6.67,26.96-7.11c52.55-2.45,105.16-4.14,157.73-6.2c25.93-1.02,51.87-2.04,77.8-3.06
				c6.36-0.25,12.74-0.37,19.08-0.99c6.18-0.61,12.33-1.8,18.53-2.24c9.72-0.68,20.22,5.18,28.17,10.35
				c7.87,5.11,14.69,11.99,19.77,19.92c3.64,5.68,11.11,7.99,17.1,4.48C563.57,193.47,566.05,185.39,562.4,179.68z"/>
		</g>
	</g>
	<g>
		<g>
			<path class="st0" d="M482.05,211.68c2.44-0.1,0.18-0.55,2.51,0.19c-1.05-0.34,2.44,1.39,2.38,1.34c0.53,0.41,2.42,2.44,3.15,3.42
				c3.15,4.24,6.7,9.99,8.05,15.13c0.59,2.23,0.3,2.29-0.7,3.62c0.49-0.66-3.02,2.88-2.65,2.59c-3.53,2.82-8.8,6.42-13.44,5.76
				c-2.72-0.39-5.39-1.66-7.81-2.92c-1.89-0.99-3.84-2.04-4.58-3.03c-0.52-0.7-1.23-3.11-1.32-3.72c-0.45-2.83-0.29-5.85-0.26-8.7
				c0.02-2-0.11-4.69,0.48-6.46c0.48-1.42,1.81-2.62,2.71-3.23c3.78-2.59,9.51-2.92,15.03-2.75c16.09,0.49,16.08-24.51,0-25
				c-16.24-0.5-33.85,4.94-40.54,21.16c-3.15,7.63-3.2,16.84-2.42,24.99c0.82,8.57,3.45,17,10.19,22.8
				c6.03,5.19,14.09,9.31,21.87,10.97c9.85,2.1,18.87,0,27.53-4.96c14.54-8.32,25.67-22.85,19.17-40.24
				c-6.28-16.81-19.07-36.75-39.36-35.96c-6.75,0.26-12.5,5.56-12.5,12.5C469.55,205.75,475.27,211.95,482.05,211.68L482.05,211.68z
				"/>
		</g>
	</g>
	<g>
		<g>
			<path class="st0" d="M266.81,331.99c7.12-19.29,24.05-34.06,42.8-41.75c4.32-1.77,8.88-2.76,13.22-4.44
				c0.03-0.01,6.04-2.6,5.22-2.38c1.99-0.52,6.17-0.19,8.69-0.19c5.06-0.01,10.41-0.57,15.41,0.15c5.51,0.79,11,2.68,16.39,4.04
				c10.74,2.7,21.54,5.78,31.99,9.48c9.38,3.33,16.42,8.85,22.79,16.42c11.98,14.25,19.58,31.65,23.09,49.85
				c3.1,16.05,1.97,34.59-4.61,49.57c-4.19,9.52-10.48,17.78-17.36,25.49c-7.15,8.01-14.52,16.31-23,22.95
				c-15.7,12.28-35.53,13.32-54.59,10.52c-10.87-1.6-21.75-4.02-32.35-6.89c-8.94-2.42-18.91-6.15-25.32-11.56
				c-14.85-12.53-20.4-31.67-23.76-51.1c-1.81-10.45-2.99-22-3.34-33.6C261.68,356,262.73,343.9,266.81,331.99
				c2.19-6.39-2.51-13.67-8.73-15.38c-6.86-1.88-13.18,2.32-15.38,8.73c-8.52,24.86-6.05,52.02-2.34,77.54
				c3.12,21.41,9.41,42.83,23.25,59.86c15.83,19.48,40.18,25.84,63.72,30.71c25.29,5.24,52.01,7.65,75.93-4.03
				c11.24-5.49,20.73-14.3,29.32-23.25c8.88-9.27,17.72-18.88,24.71-29.7c12.21-18.93,17.19-42.18,15.34-64.52
				c-1.89-22.87-9.63-45.36-22.57-64.36c-7.08-10.4-15.36-20.26-26.06-27.08c-10.63-6.78-23.47-9.99-35.45-13.52
				c-13.66-4.02-28.51-9.19-42.87-8.82c-7.41,0.19-15.39-0.78-22.68,0.83c-2.63,0.58-6.86,2.72-8.18,3.22
				c-3.17,1.2-6.52,1.92-9.71,3.09c-28.49,10.53-51.8,31.24-62.42,60.02c-2.34,6.33,2.61,13.7,8.73,15.38
				C258.41,342.64,264.46,338.35,266.81,331.99z"/>
		</g>
	</g>
</g>
</svg>
