<?xml version="1.0" encoding="utf-8"?>
<!-- Generator: Adobe Illustrator 23.0.3, SVG Export Plug-In . SVG Version: 6.00 Build 0)  -->
<svg version="1.1" id="Layer_1" xmlns="http://www.w3.org/2000/svg" xmlns:xlink="http://www.w3.org/1999/xlink" x="0px" y="0px"
	 viewBox="0 0 720 720" style="enable-background:new 0 0 720 720;" xml:space="preserve">
<style type="text/css">
	.st0{fill:#FFFFFF;}
</style>
<g>
	<g>
		<path class="st0" d="M608.8,243.6c2.6,66.2,4.5,132.5,8.3,198.7c1.8,32,3.2,63.6-2.4,95.3c-2.6,15.1-5.6,30.3-9.9,45
			c-3.4,11.8-8.5,24.3-19.2,31.4c-10.9,7.3-23.7,6.6-36.2,6.8c-16.5,0.4-33,0.7-49.5,0.9c-33.1,0.5-66.1,0.7-99.2,0.6
			c-65.3-0.3-130.7-1.7-195.9-5.5c-12.8-0.7-26.5-1.6-38.1-7.5c-11.8-6-19-16.7-24.5-28.4c-12.6-27-17.4-57.9-20.1-87.3
			c-2.9-32-3.7-64.3-4.4-96.4c-0.7-33.1-0.8-66.2-0.3-99.3c0.6-33.1,1.8-66.2,3.7-99.2c1.4-24.5,2.9-50.7,24.3-66.6
			c17.9-13.3,41.5-17.3,63.2-19.4c28.7-2.8,57.7-3.9,86.6-5.2c60.5-2.6,121.6-2.9,181.5,6.6c29.8,4.7,59.2,11.8,87.6,21.9
			c12.1,4.3,25.6,8.1,32,20.2c6.5,12.3,8.1,28.2,9.6,41.8C607.6,213.1,608.2,228.4,608.8,243.6c0.5,11.5,18.5,11.6,18,0
			c-0.7-16.5-1.3-33-3.3-49.4c-1.9-15.4-4.1-31.6-10.9-45.7c-6.9-14.2-19.9-21-34-26.5c-14.7-5.6-29.7-10.4-44.8-14.4
			C472.2,91.3,408.1,87.3,344.8,88c-31.8,0.4-63.6,2-95.3,3.9c-26.7,1.6-54.1,2.2-80,9.5c-23.3,6.6-45.9,19.8-56.4,42.5
			c-6.5,14-8.3,29.2-9.3,44.5c-1.1,17.3-1.9,34.6-2.6,51.9c-2.7,68.8-2.7,137.7,0.2,206.5c1.4,32.7,3.2,65.7,10.4,97.8
			c6.2,27.7,15.9,61.1,41,77.5c12.5,8.2,27.6,10.8,42.2,12.1c16.3,1.4,32.7,1.9,49,2.6c34.3,1.5,68.7,2.5,103.1,3
			c69.1,1.1,138.2,0.5,207.3-1c14-0.3,27.6-1.1,39.8-8.8c12.6-8,20.3-20.6,25.4-34.4c5.4-14.6,8.2-30.4,11.1-45.7
			c3.1-16.3,5.5-32.8,6.1-49.4c1.1-33.7-2.5-67.6-3.8-101.2c-1.4-34.9-2.8-69.8-4.2-104.8c-0.7-17-1.4-33.9-2-50.9
			C626.3,232,608.3,232,608.8,243.6z"/>
	</g>
</g>
<g>
	<g>
		<path class="st0" d="M201.6,275.6c2.4,7.3,9.9,7.4,16.3,7.8c7.1,0.4,14.3,0.5,21.4,0.6c19.1,0.2,37.8-1.5,56.7-3.9c-3-3-6-6-9-9
			c-2.4,34-2.3,67.8-1.7,101.9c0.7,34.7,0.4,69.4,0.4,104.1c0,19.8,0,39.5,0,59.3c3-3,6-6,9-9c-22.3,1.3-44.7,1.7-67.1,1
			c-2.5-0.1-7.6,0.7-9.7-1.1c-2.3-1.9-2.1-7-2.2-9.6c-0.2-10.9,0.3-21.8,0.4-32.7c0.7-44.9,1.3-89.8,2-134.8
			c0.4-25.6,0.8-51.2,1.1-76.9c0.2-11.6-17.8-11.6-18,0c-0.7,48.2-1.4,96.5-2.1,144.7c-0.4,24.3-0.7,48.6-1.1,72.9
			c-0.2,10.6-1.2,21.6,0,32.2c1.2,10,6.1,19.2,16.4,22c6,1.6,12.8,1.2,19,1.4c6.6,0.2,13.2,0.2,19.7,0.2c13.8,0,27.6-0.5,41.4-1.3
			c4.9-0.3,9-3.9,9-9c0-34.9,0-69.8,0-104.7c0-34.5-1-68.9-1-103.4c0-19.1,0.9-38,2.3-57.1c0.3-4.4-4.4-9.6-9-9
			c-17.4,2.3-34.8,4.1-52.4,4c-6.5,0-13-0.1-19.5-0.3c-2.8-0.1-5.7-0.2-8.5-0.4c-0.6,0-3.4-0.5-1.8-0.1c1.6,0.3,0.2,0.1-0.1-0.1
			c-2.1-0.7,1.6,0.6,2.9,1.9c0.8,1.3,1.5,2.6,2.3,4c0,0,0-0.1,0-0.1C215.3,259.9,197.9,264.6,201.6,275.6z"/>
	</g>
</g>
<g>
	<g>
		<path class="st0" d="M424.1,514.1c0.2,3.1,1.2,9.7-0.5,11.6c-0.3,0.3-3.5,0.8-4.9,1c-3.6,0.4-7.3,0.3-10.9,0.2
			c-15.8-0.4-31.7-0.4-47.5-1c2.9,3.8,5.8,7.6,8.7,11.4c7.7-33.8-1.7-68.2-2.7-102.3c-1.1-35.4-0.5-70.8-0.8-106.2
			c-0.2-19.5,1.5-40.2-2.8-59.4c-2.9,3.8-5.8,7.6-8.7,11.4c19.7,0,39.1-3.2,58.6-4.6c-2.9-3.8-5.8-7.6-8.7-11.4
			c-1.4,7.5,0.2,14.2,1.2,21.6c1,7.7,1.5,15.5,2,23.2c0.8,11.8,16.6,11.4,18,0c0.4-3.2,6.2-7.4,8.4-9.1c4.2-3.2,9-5.6,13.6-7.9
			c10-5.1,19.7-9.7,31.2-9.8c18.8-0.1,35.4,11,47,25.1c13.5,16.5,19.4,38.1,21.8,59c2.8,24.4,2.8,49.2,3.6,73.8
			c1.1,29.9,2.1,59.8,3.2,89.6c3-3,6-6,9-9c-25.1-0.2-50.2-0.4-75.2-0.6c3,3,6,6,9,9c3.9-35.5,6.4-73.1-8.7-106.5
			c-6.7-14.7-19.3-34.4-37.6-34.5c-10-0.1-17.2,7.7-19.5,16.8c-2.6,10.3-3.4,21.4-4.6,31.9C423.6,462.9,422.9,488.5,424.1,514.1
			c0.6,11.5,18.6,11.6,18,0c-0.9-19.3-0.8-38.7,0.6-58c0.7-9.7,1.6-19.5,2.9-29.2c0.6-4.4,1.2-8.8,2-13.1c0.3-1.6,0.6-6.2,2.4-7
			c4.1-1.7,10.5,6.1,12.4,8.6c4.4,5.7,8.1,12.2,10.9,18.9c5.6,13.7,7.7,28.4,8.2,43.1c0.6,17.5-1,35-2.8,52.3c-0.5,4.9,4.6,9,9,9
			c25.1,0.2,50.2,0.4,75.2,0.6c4.7,0,9.2-4.2,9-9c-1-29.6-2.1-59.1-3.1-88.7c-1-28.1-0.8-56.5-4.9-84.3
			c-3.6-24.1-12.2-47.3-28.7-65.5c-15.1-16.7-37.3-28.4-60.3-26.9c-15.1,1-28.1,7.3-41.2,14.4c-11.9,6.4-24.8,16-26.6,30.3
			c6,0,12,0,18,0c-0.5-7.6-1.1-15.1-2-22.7c-0.6-5.4-2.9-11.9-1.9-17.4c1-5.3-2.4-11.9-8.7-11.4c-19.6,1.5-39,4.7-58.6,4.6
			c-6.1,0-10,5.7-8.7,11.4c3.6,15.9,2,33.4,2.2,49.6c0.1,17.3,0.3,34.5,0.4,51.8c0.2,34.3-0.5,68.6,4,102.6
			c2.4,18,3.9,36.4-0.2,54.3c-1.3,5.8,2.7,11.2,8.7,11.4c10.3,0.4,20.6,0.6,31,0.7c9.1,0.1,18.4,0.9,27.4,0.1
			c8.3-0.8,16.3-2.6,20.8-10.3c3.5-6.1,3.1-13.5,2.7-20.2C441.5,502.6,423.5,502.5,424.1,514.1z"/>
	</g>
</g>
<g>
	<g>
		<path class="st0" d="M194,201.3c-0.1,10.2,2.2,20.1,8.8,28.1c7.1,8.6,18.4,13.3,29,15.3c11.4,2.2,23.5,2.9,34.8,0.1
			c11.8-3,20.9-10.1,28.1-19.8c7-9.5,13.5-21,15.2-32.8c1.8-12.6-3.5-23.7-11.7-33c-13.9-15.8-37.2-24.9-57.7-18
			c-12.1,4-22.9,12.5-31.7,21.5C198.3,173.5,194.5,186.5,194,201.3c-0.4,11.6,17.6,11.6,18,0c0.3-8.6,1.6-16.8,7.4-23.5
			c5.4-6.2,12.2-11.9,19.3-16.1c13.5-7.9,29.1-5.2,41,4.5c5.4,4.4,11.4,10.9,12.6,18c1.4,8.4-4,17.1-8.1,24.1
			c-4.2,7-9,13.7-16.6,17.2c-7.6,3.5-16.1,3.4-24.2,2.7c-8.5-0.7-18.2-2.7-24.8-8.4c-5.5-4.8-6.7-11.6-6.6-18.5
			C212.1,189.7,194.1,189.7,194,201.3z"/>
	</g>
</g>
</svg>
