<?xml version="1.0" encoding="utf-8"?>
<!-- Generator: Adobe Illustrator 23.0.3, SVG Export Plug-In . SVG Version: 6.00 Build 0)  -->
<svg version="1.1" id="Layer_1" xmlns="http://www.w3.org/2000/svg" xmlns:xlink="http://www.w3.org/1999/xlink" x="0px" y="0px"
	 viewBox="0 0 720 720" style="enable-background:new 0 0 720 720;" xml:space="preserve">
<style type="text/css">
	.st0{fill:#FFFFFF;}
</style>
<g>
	<g>
		<g>
			<path class="st0" d="M123.21,444.6c2.82-27.59,4.37-55.32,4.11-83.06c-0.14-14-1.07-27.93-0.06-41.92
				c0.93-12.92,2.92-25.7,5.09-38.46c2.28-13.43,4.25-26.95,6.73-40.34c2-10.85,5.28-19.71,12.93-26.7
				c15.73-14.35,41.41-18.42,62.34-21.54c24.52-3.66,49.43-4.6,74.15-5.99c27.51-1.54,54.99-3.16,82.54-4.01
				c28.26-0.87,56.55-1.55,84.83-1.75c26.36-0.19,53.12,0.49,78.67,7.65c10.86,3.04,21.04,7.09,30.71,12.89
				c7.8,4.67,15.77,11.13,20.58,17.73c14.01,19.24,12.19,43.95,11.96,66.55c-0.58,57.29-1.15,114.58-1.73,171.88
				c-0.1,10.09-0.18,20.16-1.33,30.19c-0.28,2.42,0.49-2.93-0.15,1.15c-0.2,1.27-0.4,2.55-0.64,3.81c-0.39,2.1-0.83,4.2-1.34,6.28
				c-0.51,2.06-1.08,4.11-1.73,6.13c-0.39,1.21-0.81,2.4-1.25,3.59c-0.88,2.37,0.48-0.83-0.67,1.67
				c-3.77,8.21-8.29,14.3-14.28,18.46c-8.54,5.94-18.59,8.77-28.88,9.72c-12.78,1.18-25.68,0.56-38.49,0.19
				c-14.25-0.4-28.49-0.85-42.74-1.34c-28.48-0.98-56.96-2.13-85.43-3.46c-56.91-2.65-113.78-6-170.61-10.04
				c-13.48-0.96-27.02-1.68-40.46-3.1c-11.12-1.17-21.04-3.54-29.55-10.05c1.49,1.14-0.57-0.52-0.89-0.82
				c-0.75-0.7-1.52-1.39-2.24-2.12c-0.86-0.87-1.67-1.77-2.46-2.69c-0.22-0.25-1.42-1.87-0.28-0.31c-1.18-1.61-2.25-3.3-3.23-5.04
				c-0.59-1.05-1.09-2.13-1.66-3.19c-1.32-2.47,0.25,0.99-0.65-1.43c-1.56-4.22-2.78-8.5-3.62-12.93c-0.15-0.81-0.28-1.63-0.43-2.44
				c-0.72-3.95,0.16,2.39-0.22-1.62c-0.24-2.51-0.46-5-0.58-7.52C121.85,461.95,122.34,453.25,123.21,444.6
				c0.68-6.73-6.23-12.5-12.5-12.5c-7.32,0-11.82,5.75-12.5,12.5c-1.94,19.27-2.12,40.08,5.22,58.33
				c8.91,22.15,27.19,36.54,50.67,40.94c14.62,2.74,29.69,3.25,44.5,4.32c14.53,1.05,29.06,2.06,43.6,3.02
				c30.41,2.01,60.82,3.83,91.25,5.45c59.57,3.16,119.17,5.57,178.8,7.21c25.91,0.71,54.73,1.52,76.65-14.65
				c17.45-12.86,26.59-32.65,29.76-53.7c3.77-25.02,2.5-50.74,2.76-75.96c0.31-30.64,0.62-61.29,0.93-91.93
				c0.15-14.66,0.3-29.31,0.44-43.97c0.14-13.62,0.28-27.16-1.66-40.68c-3.7-25.82-17.78-46.49-39.4-60.75
				c-47.35-31.24-109.05-26.84-163.09-25.8c-57.19,1.1-114.44,3.31-171.49,7.7c-26.34,2.03-53.75,4.63-78.9,13.23
				c-12.18,4.17-23.7,10.02-33.38,18.6c-9.86,8.74-15.98,20.58-18.91,33.31c-3.13,13.6-4.71,27.69-7.08,41.45
				c-2.47,14.33-4.81,28.72-6.16,43.21c-1.36,14.64-0.69,29.09-0.46,43.75c0.24,14.85-0.06,29.7-0.79,44.53
				c-0.7,14.15-1.82,28.28-3.26,42.38c-0.69,6.73,6.24,12.5,12.5,12.5C118.04,457.1,122.52,451.34,123.21,444.6z"/>
		</g>
	</g>
	<g>
		<g>
			<path class="st0" d="M183.16,281.09c26.25,11.07,51.45,24.89,75.16,40.66c11.68,7.77,23.03,16.04,33.91,24.89
				c10.79,8.78,20.84,18.37,31.42,27.38c10.79,9.19,22.22,17.49,35.71,22.23c14.05,4.94,29.75,4.32,43.72-0.57
				c28.64-10.02,48.89-33.64,72.59-51.41c25.8-19.34,54.07-35.75,83.9-48.04c6.24-2.57,10.68-8.3,8.73-15.38
				c-1.62-5.9-9.1-11.32-15.38-8.73c-27.33,11.25-53.44,24.99-77.76,41.82c-12.2,8.45-23.96,17.57-35.23,27.23
				c-10.84,9.29-21.36,19.09-33.96,26c-10.42,5.72-23.03,9.24-34.11,6.67c-11.41-2.64-21.46-9.79-30.54-17.52
				c-10.14-8.64-19.77-17.83-30.07-26.28c-11.59-9.51-23.59-18.55-35.98-26.99c-26.87-18.3-55.54-33.47-85.47-46.09
				c-6.22-2.63-13.75,2.82-15.38,8.73C172.44,272.94,176.91,278.46,183.16,281.09L183.16,281.09z"/>
		</g>
	</g>
</g>
</svg>
